<?xml version="1.0" encoding="UTF-8" standalone="no"?> <!-- Created with Vectornator for iOS (http://vectornator.io/) --><!DOCTYPE svg PUBLIC "-//W3C//DTD SVG 1.1//EN" "http://www.w3.org/Graphics/SVG/1.1/DTD/svg11.dtd">
<svg height="100%" style="fill-rule:evenodd;clip-rule:evenodd;stroke-linecap:round;stroke-linejoin:round;" xmlns:xlink="http://www.w3.org/1999/xlink" xmlns="http://www.w3.org/2000/svg" xml:space="preserve" width="100%" xmlns:vectornator="http://vectornator.io" version="1.1" viewBox="0 0 265 76">
<metadata>
<vectornator:setting key="DimensionsVisible" value="1"/>
<vectornator:setting key="SnapToGrid" value="0"/>
<vectornator:setting key="SnapToPoints" value="0"/>
<vectornator:setting key="GuidesVisible" value="1"/>
<vectornator:setting key="RulersVisible" value="1"/>
<vectornator:setting key="SnapToEdges" value="0"/>
<vectornator:setting key="DisplayWhiteBackground" value="0"/>
<vectornator:setting key="SnapToGuides" value="1"/>
<vectornator:setting key="GridSpacing" value="36"/>
<vectornator:setting key="Units" value="Pixels"/>
<vectornator:setting key="DynamicGuides" value="0"/>
<vectornator:setting key="New" value="1"/>
</metadata>
<defs/>
<g id="Layer 1" vectornator:layerName="Layer 1">
<g opacity="1">
<path d="M1.81244+17.2653L1.81244+1.64526L7.48844+1.64526C9.18978+1.64526+10.6124+1.99359+11.7564+2.69026C12.9004+3.38692+13.7584+4.32559+14.3304+5.50626C14.9024+6.68692+15.1884+7.99592+15.1884+9.43326C15.1884+11.0173+14.8731+12.3959+14.2424+13.5693C13.6118+14.7426+12.7208+15.6519+11.5694+16.2973C10.4181+16.9426+9.05778+17.2653+7.48844+17.2653L1.81244+17.2653ZM12.1304+9.43326C12.1304+8.42126+11.9471+7.53026+11.5804+6.76026C11.2138+5.99026+10.6858+5.38892+9.99644+4.95626C9.30711+4.52359+8.47111+4.30726+7.48844+4.30726L4.84844+4.30726L4.84844+14.6033L7.48844+14.6033C8.48578+14.6033+9.32911+14.3796+10.0184+13.9323C10.7078+13.4849+11.2321+12.8689+11.5914+12.0843C11.9508+11.2996+12.1304+10.4159+12.1304+9.43326Z" opacity="1" fill="#000000"/>
<path d="M22.6024+17.4853C21.6638+17.4853+20.8204+17.3276+20.0724+17.0123C19.3244+16.6969+18.6901+16.2606+18.1694+15.7033C17.6488+15.1459+17.2491+14.5079+16.9704+13.7893C16.6918+13.0706+16.5524+12.3153+16.5524+11.5233C16.5524+10.7166+16.6918+9.95392+16.9704+9.23526C17.2491+8.51659+17.6488+7.87859+18.1694+7.32126C18.6901+6.76392+19.3244+6.32759+20.0724+6.01226C20.8204+5.69692+21.6638+5.53926+22.6024+5.53926C23.5411+5.53926+24.3808+5.69692+25.1214+6.01226C25.8621+6.32759+26.4964+6.76392+27.0244+7.32126C27.5524+7.87859+27.9521+8.51659+28.2234+9.23526C28.4948+9.95392+28.6304+10.7166+28.6304+11.5233C28.6304+12.3153+28.4948+13.0706+28.2234+13.7893C27.9521+14.5079+27.5561+15.1459+27.0354+15.7033C26.5148+16.2606+25.8804+16.6969+25.1324+17.0123C24.3844+17.3276+23.5411+17.4853+22.6024+17.4853ZM19.5884+11.5233C19.5884+12.1979+19.7204+12.7956+19.9844+13.3163C20.2484+13.8369+20.6078+14.2439+21.0624+14.5373C21.5171+14.8306+22.0304+14.9773+22.6024+14.9773C23.1598+14.9773+23.6658+14.8269+24.1204+14.5263C24.5751+14.2256+24.9381+13.8149+25.2094+13.2943C25.4808+12.7736+25.6164+12.1759+25.6164+11.5013C25.6164+10.8413+25.4808+10.2473+25.2094+9.71926C24.9381+9.19126+24.5751+8.78059+24.1204+8.48726C23.6658+8.19392+23.1598+8.04726+22.6024+8.04726C22.0304+8.04726+21.5171+8.19759+21.0624+8.49826C20.6078+8.79892+20.2484+9.20959+19.9844+9.73026C19.7204+10.2509+19.5884+10.8486+19.5884+11.5233Z" opacity="1" fill="#000000"/>
<path d="M41.3244+17.2653L38.3764+17.2653L38.3764+10.7973C38.3764+9.87326+38.2151+9.19859+37.8924+8.77326C37.5698+8.34792+37.1224+8.13526+36.5504+8.13526C36.1544+8.13526+35.7548+8.23792+35.3514+8.44326C34.9481+8.64859+34.5851+8.93092+34.2624+9.29026C33.9398+9.64959+33.7051+10.0639+33.5584+10.5333L33.5584+17.2653L30.6104+17.2653L30.6104+5.73726L33.2724+5.73726L33.2724+7.87126C33.5658+7.37259+33.9398+6.95092+34.3944+6.60626C34.8491+6.26159+35.3734+5.99759+35.9674+5.81426C36.5614+5.63092+37.1884+5.53926+37.8484+5.53926C38.5671+5.53926+39.1574+5.66759+39.6194+5.92426C40.0814+6.18092+40.4334+6.52559+40.6754+6.95826C40.9174+7.39092+41.0861+7.87859+41.1814+8.42126C41.2768+8.96392+41.3244+9.51392+41.3244+10.0713L41.3244+17.2653Z" opacity="1" fill="#000000"/>
</g>
<g opacity="1">
<path d="M38.0577+49.6149L38.0577+49.5549C37.6977+47.5749+34.9977+50.8749+34.6377+51.1749C32.8977+53.0949+31.2777+55.1949+29.7177+57.2949C28.1577+59.4549+26.6577+61.6149+25.0377+63.7749C24.2577+64.8549+23.4777+65.8749+22.5777+66.8349C22.2777+67.1949+21.5577+68.2149+21.0177+68.2149C18.9177+68.2149+20.5377+59.7549+20.7777+58.4349C21.1377+56.0949+21.3177+52.9749+22.8177+51.1149C23.1777+50.6349+27.2577+45.4149+27.2577+45.4149C27.1377+45.3549+26.6577+45.9549+26.3577+46.3149L28.9377+42.8349L29.1177+42.5949L29.1777+42.5949L29.1177+42.5949L29.5977+41.9349C29.6577+41.9949+29.5977+42.1149+29.5377+42.2349L30.0777+41.6349L31.6377+39.5949C32.7777+37.9749+33.8577+36.2349+34.8777+34.5549C36.4977+31.7949+38.7177+27.8349+37.5177+24.4749C36.6177+22.0149+33.3177+21.5349+31.0977+22.3749C29.4777+22.9749+28.0977+24.2349+26.9577+25.5549C26.3577+26.3349+25.7577+27.1749+25.2177+28.0749C25.0377+28.3149+24.2577+30.2349+24.0777+30.4749L24.1377+30.4749C23.7777+31.1349+23.4177+31.7949+23.1777+32.4549C23.2977+31.9749+23.5977+31.0149+23.8377+30.8349C23.3577+31.1949+22.9377+32.9349+22.8177+33.1149C20.5377+38.0949+18.5577+43.1349+17.1177+48.4149C15.4977+46.5549+12.9177+43.3749+10.0977+44.5149C7.75765+45.4749+6.01765+47.9349+4.81765+50.0949C3.73765+52.0149+3.43765+53.9949+2.65765+55.8549C1.27765+59.0349+0.617651+65.5749+5.29765+66.5349C6.73765+66.8349+8.05765+65.9349+9.19765+65.1549C11.2377+63.6549+13.1577+61.9149+14.9577+60.1149C14.6577+63.2949+13.9977+68.0949+16.5777+70.6149C19.7577+73.8549+22.9377+69.4749+24.8577+67.0749C27.3177+63.9549+29.2377+60.4749+31.6977+57.4749C32.8977+56.0349+34.0977+54.5949+35.3577+53.2749C36.3177+52.3149+38.2377+51.1149+38.0577+49.6149ZM15.9777+53.5749C15.9177+53.7549+15.9177+53.8749+15.9177+53.8749C15.6777+55.3149+15.6777+56.5749+14.6577+57.5949C13.7577+58.5549+12.7977+59.4549+11.8377+60.3549C10.9377+61.1949+8.77765+63.6549+7.39765+63.5349C5.71765+63.3549+6.97765+59.5149+7.81765+57.1749C6.91765+59.5749+5.47765+63.4749+7.45765+63.5949C7.99765+63.6549+8.89765+63.1749+9.67765+62.5149C8.95765+63.1749+7.75765+64.0749+7.03765+63.7149C5.65765+63.1149+6.85765+59.6949+7.09765+58.7349C7.87765+55.9749+9.01765+53.3349+10.3377+50.8149C10.9977+49.5549+11.9577+47.5149+13.2177+47.3949L12.9177+47.5749C12.9777+47.5149+13.0377+47.5149+13.0977+47.5149C13.5177+47.3949+13.9377+47.6949+14.2377+47.9349C15.0177+48.4749+15.4977+49.4949+16.0377+50.2749C16.6377+51.2349+16.2177+52.2549+15.9777+53.3349L15.9777+53.5749ZM25.6377+39.7149C25.6377+39.6549+25.6377+39.5349+25.6977+39.4749L25.6977+39.4149C25.7577+39.2349+25.8177+39.1749+25.8177+39.1749L25.8177+39.1149C27.1977+35.2749+28.6977+31.4349+30.8577+27.9549C31.3977+27.0549+32.9577+24.2949+34.3377+25.0749C34.8777+25.3749+34.9977+26.1549+34.9977+26.6949C35.2377+30.2949+32.3577+34.5549+30.5577+37.4349C28.4577+40.7949+26.1177+44.0949+23.6577+47.1549L24.9777+45.7749L26.1777+44.2749L23.1177+48.2349L22.6977+48.7749L22.4577+49.0149C22.5177+48.6549+22.8177+48.2949+23.1177+47.8749C22.9977+47.9949+22.8777+48.1149+22.8177+48.2349C23.5977+45.6549+24.4377+43.0749+25.3377+40.4949C25.2777+40.5549+25.3377+40.4349+25.3977+40.1949L25.5777+39.8949C25.5777+39.8349+25.5777+39.7749+25.6377+39.7149ZM20.5977+44.6349C20.4777+44.9349+20.1177+46.3149+19.9377+46.4949C19.9377+46.5549+19.8777+46.6149+19.8177+46.6149C20.2977+46.0149+19.9977+45.2349+20.2377+44.5149C20.3577+44.1549+20.9577+43.4949+21.0777+43.0149C21.0777+43.4949+20.7777+44.3349+20.5977+44.6349ZM11.0577+61.2549C12.5577+59.9349+13.9977+58.5549+15.3777+57.1149C15.2577+57.8949+13.3977+59.2149+12.7377+59.8149C11.9577+60.5949+11.0577+61.3749+10.1577+62.0949L10.0977+62.0949L11.0577+61.2549ZM21.6777+39.1749C21.4377+39.8949+21.1377+40.5549+20.7777+41.2149C21.0777+40.3149+21.2577+39.4149+21.6777+38.5749C22.0377+37.9149+22.4577+37.0749+22.7577+36.2949C22.4577+37.2549+21.9777+38.2749+21.6777+39.1749ZM25.5777+39.8949L25.3377+40.4949C25.3377+40.4349+25.3977+40.3149+25.3977+40.1949L25.5777+39.8949ZM12.6177+47.8149C12.3777+47.9949+12.1977+48.2349+12.1377+48.2349C12.2577+48.2349+12.4377+47.9949+12.6177+47.8149ZM14.2977+47.6949C14.4177+47.7549+14.5377+47.8149+14.6577+47.9349L14.2977+47.6949ZM26.1777+46.6149C26.1777+46.5549+26.2377+46.4949+26.2977+46.4349C26.2377+46.5549+26.1777+46.6149+26.1777+46.6149ZM26.2977+46.4349L26.3577+46.3149C26.3577+46.3749+26.2977+46.4349+26.2977+46.4349Z" opacity="1" fill="#000000"/>
<path d="M56.6577+49.4349C56.6577+49.4949+56.6577+49.4949+56.5977+49.4349L56.5977+49.3749C55.6377+47.7549+54.3777+49.9749+53.8377+50.7549C52.8177+52.1349+51.8577+53.4549+50.7777+54.7149C49.8777+55.7949+48.9177+56.8749+48.1977+58.0149C48.1977+58.1349+48.0777+58.4349+48.0777+58.4349C47.8377+58.7949+47.4777+59.0949+47.1777+59.4549C46.6377+59.9949+46.0977+60.5949+45.4977+61.1349C44.5977+61.9749+39.5577+66.7149+38.8977+63.6549C38.5377+62.1549+39.0177+60.2949+39.3177+58.8549C39.4977+58.0749+39.6777+57.3549+39.7977+56.5749C39.9177+55.9749+39.7377+55.3749+40.0377+54.7749C40.2177+54.4149+40.2777+54.4749+40.6977+54.3549L41.7177+53.9949C42.3777+53.7549+43.0377+53.5149+43.6377+53.1549C44.5377+52.6149+45.3777+51.9549+46.1577+51.2949C48.0177+49.7349+49.9977+47.8749+50.7777+45.5349C51.1977+44.2149+51.2577+42.7749+50.4177+41.6349C49.6377+40.6149+48.3177+40.0749+47.1177+39.8349C43.8777+39.2349+41.4177+41.0949+39.5577+43.5549C37.2777+46.3749+35.6577+49.8549+34.8777+53.3949C34.4577+55.1349+34.2177+56.8749+33.9177+58.6749C33.6177+60.4749+33.4377+62.1549+34.3977+63.8349C34.3377+63.2349+34.2177+62.6949+34.2177+62.1549C34.2177+61.8549+34.3377+61.5549+34.3377+61.3149C34.3377+61.1949+34.2177+60.8349+34.2177+60.6549C34.2177+60.1149+34.3377+59.6949+34.4577+59.1549C34.5177+58.6149+34.4577+58.0749+34.5177+57.5349C34.5777+56.9349+34.8177+56.4549+35.0577+55.9149C35.2377+55.4349+35.2977+55.0149+35.4777+54.5349C35.6577+54.1149+35.7777+53.6349+35.9577+53.1549C36.0177+52.8549+36.3177+52.4949+36.4977+52.1349C36.3177+52.6749+35.9577+53.1549+35.8377+53.6349C35.6577+54.3549+35.7777+55.1349+35.7177+55.8549C35.5977+56.6349+35.3577+57.4149+35.2377+58.2549C35.1177+59.0349+34.7577+59.7549+34.6377+60.5349C34.5177+61.2549+34.2777+61.7949+34.3377+62.5149C34.3377+62.9349+34.3977+63.3549+34.4577+63.7149C34.5177+64.1949+34.8177+64.4949+35.1177+64.8549C36.1377+66.0549+37.5177+67.0149+39.0777+67.4349C40.1577+67.7349+41.1177+67.6749+42.1377+67.1349C43.5777+66.3549+44.8377+65.1549+45.9177+64.0149C46.9377+62.8749+47.7177+61.6149+48.6177+60.4149C49.4577+59.3349+50.4777+58.3149+51.3177+57.2349L54.5577+53.0349L56.4177+50.5749C56.7177+50.2149+56.8977+49.9149+56.6577+49.4349ZM41.7777+50.0949C41.8377+49.9749+41.8377+49.9149+41.8377+49.9149C42.7377+47.9949+43.3977+45.9549+44.6577+44.0949L45.7377+42.6549C45.9777+42.3549+46.3977+41.8149+46.8177+41.6949C47.7177+41.5149+47.9577+43.0749+47.8977+43.6749L47.6577+44.9349C47.5977+45.2949+47.7177+45.5349+47.6577+45.8349C47.5377+46.1949+47.2377+46.3749+47.0577+46.6749L46.0377+47.9949C44.6577+49.6149+42.9177+50.9949+40.9977+52.0149C41.2977+51.3549+41.4777+50.6949+41.7777+50.0949Z" opacity="1" fill="#000000"/>
<path d="M76.1577+50.1549C75.9777+49.3149+75.4977+49.1949+74.8977+49.4349C73.7577+49.9749+72.6177+51.1749+71.5377+51.8949C69.0777+53.4549+66.6177+54.7149+63.9777+56.0349C63.9777+55.9749+63.9177+55.8549+63.8577+55.6749C63.9177+55.9749+63.8577+56.0949+63.7977+56.1549C63.1977+53.5749+62.5977+50.9949+62.1177+48.3549C62.3577+49.4949+62.8977+51.4149+63.3177+53.0349C62.7777+50.5149+62.1177+47.3949+62.1777+47.3949C62.0577+47.4549+62.0577+47.5749+62.0577+47.6949C61.9377+46.9749+61.7577+46.0749+61.8777+45.2949C61.9377+44.3949+62.4177+43.6149+62.7177+42.7749C62.6577+43.1949+62.5377+43.7349+62.5377+43.7349C62.8977+43.7949+63.1377+41.5749+63.1377+41.3349C63.0777+40.9749+62.2977+39.8349+62.2977+40.1349C60.6777+38.6349+57.4977+41.9349+57.0177+43.3749C56.6577+44.3349+56.6577+45.3549+56.7177+46.3749C56.7777+47.3949+57.0777+48.2949+57.3777+49.2549C57.5577+49.9749+57.3177+50.4549+57.3777+51.2349C57.4977+52.4349+57.9177+53.6349+58.1577+54.7749C58.3977+55.6749+59.1777+57.4749+58.9977+58.3149C58.8777+59.1549+57.0777+59.8749+56.2977+60.3549C55.2777+61.0149+54.2577+61.7949+53.2377+62.5749C51.4377+63.9549+49.5177+65.6949+48.7977+67.9149C48.6777+68.2149+48.2577+69.5349+48.6777+69.7749C48.7377+69.8349+48.9177+68.8149+48.9777+68.6949C48.1977+72.6549+52.0977+74.5749+55.7577+74.6349C59.8977+74.7549+62.7777+72.3549+64.2177+68.6349C64.8177+67.0149+64.9977+65.3349+64.9377+63.6549C64.9377+62.5149+64.8177+61.4349+64.6377+60.3549C64.5177+59.3949+64.3977+59.4549+65.0577+58.9149C65.5377+58.5549+66.2577+58.3149+66.7377+58.0749C68.6577+57.0549+70.3977+55.8549+72.1377+54.5949C73.3977+53.6949+76.3977+52.1349+76.1577+50.2149L76.1577+50.1549ZM51.9177+70.7949C50.3577+70.3149+51.9177+67.8549+52.4577+67.0749C53.3577+65.8749+54.6777+64.9749+55.8777+64.1349L57.6777+62.9349C57.8577+62.8149+58.9977+61.9149+58.6377+62.0349L59.3577+61.6149L58.9377+61.9749C59.0577+61.9149+59.2377+61.8549+59.3577+61.7349C59.4177+63.1749+59.4177+64.6149+58.9977+66.0549C58.9377+66.2949+57.7977+68.6949+57.3177+69.1749L57.6177+68.9349C57.0777+69.5949+56.4777+70.1349+55.7577+70.5549C55.7577+70.4949+56.2977+70.1349+56.2377+70.0749L54.5577+70.7349C53.7177+70.9149+52.7577+71.0949+51.9177+70.7949ZM59.4777+72.5349C57.9177+73.1949+56.4177+73.4949+54.7977+73.5549C57.7377+73.3749+60.7977+71.9349+62.5377+69.4749C61.8777+70.7949+61.0377+71.8149+59.4777+72.5349ZM63.8577+55.4949C63.7977+55.0749+63.6777+54.4749+63.4977+53.8149C63.6177+54.4749+63.7377+55.1349+63.8577+55.4949ZM64.6377+61.7349C64.5777+61.6749+64.5777+61.5549+64.5777+61.4349C64.5777+61.5549+64.6377+61.6749+64.6377+61.7349Z" opacity="1" fill="#000000"/>
<path d="M118.338+49.4949C118.038+49.4949+117.618+50.0949+117.438+50.2749C116.598+51.1149+115.878+52.0749+115.158+52.9749C113.178+55.2549+111.198+57.5949+109.038+59.6949C108.498+60.1749+107.118+61.7949+106.338+61.2549C105.858+60.9549+106.278+59.0349+106.338+58.6149C106.458+58.0749+107.538+55.2549+107.178+54.8949C106.998+54.7749+106.698+55.6749+106.638+55.7349C107.598+52.3749+109.518+48.5349+111.078+45.2349C111.978+43.4349+113.118+41.2149+111.618+39.3549C108.978+36.1149+105.678+40.2549+103.878+42.1749C103.098+43.0149+95.5377+52.2549+95.6577+52.3149C95.6577+52.3149+96.1977+51.6549+96.9777+50.7549C95.8377+52.2549+94.7577+53.7549+93.7377+55.3149C94.3977+52.8549+95.1177+50.4549+95.8977+48.0549C96.3177+46.8549+96.6777+45.5949+97.0977+44.3349C97.5777+43.0149+97.9377+42.4749+98.9577+41.5149C100.698+39.9549+102.378+38.2749+103.938+36.4749C104.538+35.7549+104.958+34.9149+105.558+34.2549C106.098+33.7149+106.878+33.2349+107.478+32.5749C110.538+28.9749+112.998+24.4749+115.038+20.2749C115.938+18.2949+116.778+16.2549+117.378+14.1549C117.498+13.6749+118.818+8.15493+118.518+8.15493C118.458+8.15493+118.458+8.21493+118.398+8.33493C118.458+7.37493+118.398+6.29493+118.038+5.33493C118.098+5.33493+118.398+6.23493+118.398+6.23493C118.758+5.99493+117.678+4.13493+117.438+3.89493C116.898+3.35493+116.118+3.05493+115.338+3.05493C113.778+2.93493+112.338+3.77493+111.138+4.67493C108.858+6.41493+107.238+8.99493+105.558+11.3349C104.598+12.6549+103.698+13.9749+102.858+15.3549C102.258+16.2549+100.938+17.8749+100.938+18.9549C100.998+19.0149+101.058+19.0149+101.058+19.0149L100.338+20.3949C100.338+20.3949+100.698+19.3149+100.758+19.2549C100.458+19.4349+100.158+20.6949+100.158+20.7549C97.8177+25.3149+95.3577+29.6949+93.7377+34.5549C91.8777+40.0149+90.4977+45.6549+89.4777+51.2949C88.9977+53.8749+88.3977+56.6949+88.6377+59.3349C88.6377+60.0549+88.6977+60.8949+89.2377+61.4949C89.8977+62.3349+91.2777+62.6349+92.0577+61.7949C92.2977+61.4949+92.2977+61.3149+92.4177+61.0149L93.4977+59.0949C94.9377+56.8749+96.6777+54.8349+98.0577+52.5549C98.2377+52.1949+98.4177+51.7749+98.6577+51.4749C98.9577+51.1149+99.0777+51.2949+99.4377+50.9949C100.458+50.1549+101.238+48.8949+102.078+47.8749C103.818+45.7149+105.558+43.2549+107.778+41.4549L106.038+45.6549L106.218+45.4749L105.318+47.5149C105.258+47.4549+105.498+46.9149+105.498+46.8549C105.258+46.8549+104.118+49.1949+103.998+49.4349C103.278+50.8749+102.498+52.3149+102.078+53.8149C101.718+55.2549+101.298+56.6949+100.878+58.1349C100.698+59.0349+100.518+59.9349+100.578+60.8349C100.578+61.0749+101.058+63.2349+101.238+63.0549L101.238+62.8149C101.358+63.1749+101.478+63.4749+101.658+63.7749L101.298+63.2349C101.118+63.6549+102.738+65.0349+102.918+65.2149C103.818+66.1149+104.718+66.7149+106.098+66.7749C107.238+66.8349+107.838+66.4149+108.678+65.6349C110.958+63.4149+112.578+60.3549+114.318+57.7149C115.278+56.3349+116.238+54.8949+117.138+53.4549C117.378+53.1549+118.998+49.7949+118.758+49.8549C119.118+49.7949+118.458+49.4949+118.338+49.4949ZM113.118+9.11493L113.118+9.05493C113.118+9.05493+113.178+9.05493+113.178+8.99493L113.178+9.05493C113.238+8.93493+113.298+8.81493+113.238+8.87493C113.718+8.15493+114.918+5.99493+115.758+6.71493C116.598+7.43493+115.818+9.95493+115.578+10.8549C115.098+12.7149+114.378+14.5149+113.658+16.2549C112.218+19.6149+110.418+22.7949+108.438+25.9149C107.478+27.4149+106.458+28.9149+105.438+30.3549C104.898+31.0749+104.358+31.7949+103.758+32.5149L103.278+33.0549L104.358+31.9749L106.758+28.6149C108.078+26.8149+109.338+24.8349+110.538+22.8549C107.478+28.2549+103.758+33.3549+99.4377+37.9149L101.238+33.1749C101.418+32.8149+102.678+29.2749+102.678+29.2749C102.558+29.3349+102.378+29.6349+102.198+29.9349C103.638+26.6349+105.498+23.2149+107.178+19.9149C109.038+16.3149+110.898+12.5949+113.058+9.17493C113.058+9.17493+113.118+9.17493+113.118+9.11493ZM98.0577+38.5149C98.5977+35.2749+100.098+32.2149+101.178+29.0949C102.138+26.4549+103.698+24.0549+104.898+21.5349C105.438+20.3349+111.198+9.35493+111.318+9.41493C111.798+9.71493+104.418+23.8149+103.638+25.4949C102.978+26.7549+102.378+27.9549+101.898+29.3349C101.478+30.6549+100.758+31.7349+100.278+32.9949C100.038+33.5949+97.6377+39.8949+97.8177+39.9549C97.6977+39.9549+97.9377+38.9949+97.9977+38.6949L98.0577+38.5149ZM102.198+34.3149C102.318+34.1949+102.438+33.9549+102.618+33.7749C102.438+33.9549+102.318+34.1349+102.198+34.3149ZM113.118+9.11493L113.118+9.05493L113.178+9.05493L113.118+9.11493ZM98.0577+38.5749C98.0577+38.6349+97.9977+38.6349+97.9977+38.6949C97.9977+38.6949+98.0577+38.6349+98.0577+38.5749Z" opacity="1" fill="#000000"/>
<path d="M144.978+49.7949C144.918+48.4749+143.838+49.6149+143.478+50.0949C142.698+51.2349+141.978+52.4349+141.258+53.5749C139.638+56.0349+138.018+58.4949+136.158+60.8349C129.978+68.4549+134.298+54.8949+133.818+55.0149C133.578+55.0749+133.398+55.9749+133.338+56.1549C133.818+53.9949+134.718+51.4149+135.858+49.3149C136.518+47.9949+137.298+46.9149+136.098+45.4749C133.878+42.7749+131.298+45.2349+129.858+47.0949C129.258+44.8149+128.058+41.4549+125.118+41.4549C123.798+41.4549+123.018+42.1149+122.118+42.8949C121.578+43.2549+121.158+43.3149+120.678+43.7349C119.898+44.2749+119.358+45.1149+118.818+45.8349C116.778+48.8349+115.338+52.6149+114.678+56.0949C114.378+57.7749+114.258+59.6349+114.738+61.3149C115.038+62.2749+116.118+64.4349+117.498+64.2549C117.558+64.2549+117.438+64.1949+117.258+64.0749C118.098+64.3149+119.058+64.1949+119.778+63.7149C119.838+63.8349+119.118+64.1349+119.118+64.1349C119.778+65.1549+124.698+59.2149+125.058+58.6749C125.838+57.5949+126.378+56.4549+127.098+55.3149C127.638+54.4749+128.478+53.3949+129.078+52.4949C129.018+52.9149+129.018+53.4549+129.018+53.4549C127.938+56.8749+126.918+60.5949+128.358+64.1349C129.018+65.9349+130.638+67.6149+132.678+67.2549C134.478+66.9549+135.978+65.2149+137.058+63.8349C138.378+62.2749+139.518+60.5349+140.658+58.7349C141.618+57.1149+142.518+55.4949+143.298+53.6949C143.778+52.5549+145.098+51.1749+144.978+49.7949ZM127.758+50.2149C127.458+50.6349+127.158+51.0549+126.918+51.4749L125.358+53.6949C124.338+55.1949+123.258+56.6349+122.118+58.0149C121.818+58.4349+120.378+60.2949+119.778+60.1149C118.878+59.8149+119.838+56.6949+119.958+56.2149C120.138+55.3749+123.318+46.1349+124.158+45.9549C123.078+45.8949+119.598+56.7549+119.418+57.6549C119.898+54.7149+120.978+51.8349+122.178+49.1349C122.838+47.7549+124.338+44.0949+126.318+44.0949C127.398+44.0949+127.638+46.3149+127.818+47.0349C127.758+46.9149+127.218+45.1749+127.158+45.2349C126.858+45.4749+128.058+48.7749+128.058+49.2549C128.058+49.7349+128.058+49.7349+127.758+50.2149ZM129.138+53.1549C129.138+53.1549+129.318+52.3149+129.378+52.1349L129.678+51.7149L129.138+53.1549ZM128.238+49.4349L128.238+48.8349C128.418+49.0749+128.418+49.2549+128.238+49.4349Z" opacity="1" fill="#000000"/>
<path d="M171.078+49.5549L171.078+49.4949L171.018+49.4949C170.298+48.4749+169.218+50.0949+168.498+50.6349C166.938+51.8949+165.318+52.9149+163.638+53.9949C163.698+53.6949+163.698+50.4549+163.518+50.5749C163.398+50.7549+163.398+50.9349+163.398+51.1149C163.278+49.1949+162.978+46.7349+160.638+46.0149C159.738+45.7149+158.898+45.9549+158.058+46.3149C155.718+47.3949+153.738+49.6749+152.058+51.4749C150.618+53.0349+149.298+54.7149+148.098+56.4549C148.758+55.6149+149.478+54.8349+150.078+54.1749C148.758+55.8549+147.498+57.6549+146.538+59.5749L146.778+58.6149L146.658+58.9149C147.138+55.6749+147.738+52.4349+148.458+49.2549C148.758+47.7549+148.938+45.5349+149.718+44.2149C150.318+43.1349+152.178+43.0149+152.838+41.9349C152.838+41.9349+152.658+42.0549+152.418+42.1749C153.258+41.5149+154.038+40.7949+154.818+40.1349C154.818+40.1949+154.218+40.7949+154.218+40.7949C154.638+41.0949+157.998+37.5549+158.298+37.1949C159.738+35.6949+161.118+34.0749+162.198+32.2149C163.158+30.5349+164.238+28.9149+165.138+27.2349C165.738+26.2749+166.218+25.3149+166.698+24.2949C166.998+23.5749+167.838+22.0749+167.658+21.2349C167.598+21.1749+167.538+21.1749+167.478+21.2349L167.838+19.7949C167.838+19.7949+167.718+20.9349+167.658+20.9949C167.958+20.7549+167.898+19.4949+167.898+19.4949C168.618+16.0749+168.618+9.23493+163.758+8.99493C161.238+8.93493+159.198+11.2149+157.758+12.9549C156.078+15.0549+154.638+17.3949+153.378+19.7949C151.038+23.9349+149.238+28.3749+147.438+32.7549C145.398+37.7949+143.598+43.0149+142.398+48.2949C141.618+51.4149+141.018+54.5349+140.778+57.7149C140.718+58.4949+140.178+62.7549+141.258+63.1749C141.258+63.2349+141.258+62.9949+141.198+62.6349C141.258+62.9349+141.378+63.1149+141.498+63.3549C141.438+63.3549+141.798+64.2549+141.798+64.2549C142.098+64.7949+142.518+65.3349+143.058+65.6949C144.078+66.4149+145.458+66.7749+146.178+65.5749C146.778+64.6149+147.018+62.9949+147.558+61.9149C147.738+61.4349+147.978+60.9549+148.218+60.4749C148.158+60.1749+148.218+59.9349+148.458+59.7549C148.578+59.8149+148.698+59.7549+148.878+59.6349C149.778+58.6149+150.318+57.2349+151.038+56.0349C151.338+55.5549+155.238+50.3949+155.718+50.1549C155.658+50.1549+155.598+50.1549+155.538+50.2149C155.898+49.8549+156.198+49.6149+156.618+49.3149C156.678+49.4349+156.318+49.6149+156.378+49.6749C156.378+49.6749+158.538+48.8949+158.778+48.8949C159.558+49.0749+159.438+50.3349+159.378+50.9349C159.258+51.8349+158.838+52.6749+158.418+53.4549C158.178+53.9349+157.758+54.4749+157.638+54.9549C157.638+55.0149+157.278+55.9749+157.638+55.5549L157.458+55.8549C157.278+56.1549+156.138+57.6549+155.898+57.8349C154.878+58.7949+154.098+59.9349+153.138+60.8949C151.938+62.0949+149.238+62.6349+151.038+64.8549C154.278+68.8149+159.258+62.5749+160.998+60.0549C161.958+58.6149+163.158+57.3549+164.178+56.1549C164.538+55.7349+165.198+55.1949+165.678+54.8949C165.858+54.7749+166.158+54.7749+166.338+54.5949C166.818+54.1149+166.878+53.8749+167.298+53.4549C168.078+52.6749+169.398+52.4349+170.118+51.5349C170.238+51.3549+170.238+51.2349+170.058+51.0549C170.118+50.9349+170.238+50.9349+170.358+50.9949L170.718+50.8149C171.018+50.3949+171.438+50.1549+171.078+49.5549ZM164.358+11.6949C166.278+11.6949+166.038+16.7349+165.978+17.8149C165.858+19.5549+165.438+21.2949+164.838+22.9149C164.418+24.1749+163.938+26.0949+163.158+27.1149C161.598+29.1549+159.858+31.4949+158.178+33.5949C156.018+36.2949+153.438+38.5749+150.738+40.7349C151.818+37.1349+153.078+33.5349+154.458+29.9949C154.818+29.1549+158.298+20.0349+158.778+19.6149C158.658+19.6749+158.538+19.7949+158.418+19.9749C159.438+17.7549+160.518+15.5349+162.078+13.5549L161.298+14.9949C161.898+14.2749+164.238+11.6349+164.358+11.8149C164.298+11.6949+163.878+11.8149+163.698+11.9349C163.878+11.7549+164.118+11.6949+164.358+11.6949ZM152.538+22.6749C153.918+20.0349+155.358+17.5749+157.218+15.1749C158.418+13.5549+160.158+11.6349+162.318+10.9149C160.218+11.6349+158.778+13.4949+157.518+15.2349C155.778+17.6349+154.338+20.1549+152.838+22.7349C150.558+26.6349+148.758+30.7749+147.198+34.9149C148.698+30.7749+150.438+26.6349+152.538+22.6749ZM156.498+58.3749C155.478+59.7549+153.978+61.4949+152.478+62.3349C153.258+61.8549+153.858+60.9549+154.638+60.0549C155.718+58.6749+156.738+57.2949+157.758+55.8549C158.238+55.1949+159.618+52.7349+160.038+50.8149C159.618+53.5149+157.938+56.1549+156.498+58.3749ZM150.438+40.9749L150.438+40.8549L150.498+40.7349C150.498+40.6749+150.558+40.6149+150.558+40.4949C150.558+40.4349+150.558+40.3749+150.618+40.3149L150.618+40.2549L151.398+37.7949L151.098+38.8749C150.978+39.3549+150.798+40.6749+150.438+40.9749ZM153.138+32.8749C154.098+30.3549+155.058+27.8349+156.078+25.3749L153.138+32.8749ZM146.838+58.5549L148.098+56.4549C147.618+57.1149+147.138+57.8349+146.838+58.5549ZM150.438+40.9749C150.438+40.9149+150.498+40.8549+150.498+40.7949L150.438+40.8549L150.438+40.9749ZM151.818+52.0149C151.818+52.0749+151.758+52.0749+151.758+52.0749L151.818+52.0149Z" opacity="1" fill="#000000"/>
<path d="M182.538+49.4949C182.418+48.7149+181.578+48.9549+181.158+49.2549C180.618+49.6149+177.618+53.5749+177.858+53.8749C178.038+53.8749+178.158+53.8749+178.278+53.7549C177.438+54.7749+175.878+55.9149+174.738+56.8149C174.078+57.3549+172.458+58.8549+171.498+58.3749C169.458+57.3549+173.598+50.1549+173.418+50.0949C173.238+50.0349+171.738+53.3949+171.438+54.1749C172.158+52.0749+173.118+49.9749+174.258+48.1149C174.198+48.2949+174.018+48.5949+174.138+48.5949C174.258+48.6549+175.158+47.3949+174.978+47.2749C174.918+47.2749+174.798+47.2749+174.738+47.3349C174.918+47.1549+175.218+47.0949+175.218+46.7349C175.218+46.1349+173.838+45.5349+173.358+45.3549C172.218+44.8749+171.078+44.7549+170.178+45.3549C168.978+46.0749+168.738+47.5149+168.258+48.7749C168.138+49.1349+166.998+53.3949+167.238+53.4549C167.358+53.3949+167.358+53.3349+167.418+53.2149L167.238+54.2949C167.178+54.2949+167.298+53.9949+167.178+53.9949C166.698+53.9949+166.818+56.1549+166.878+56.4549C167.118+57.5349+167.958+58.3149+168.618+59.2149C168.978+59.7549+169.338+60.2949+169.878+60.6549C170.598+61.1949+170.118+60.6549+170.598+60.8949L170.478+60.8949C170.418+61.2549+172.698+61.8549+173.178+61.7949C175.278+61.3149+176.778+58.7349+177.978+57.1149C179.118+55.6749+180.078+54.2349+181.098+52.7349C181.698+51.9549+182.778+50.6349+182.538+49.4949ZM172.038+41.9349C172.158+42.1149+171.978+42.3549+172.398+42.5949C172.818+42.7749+173.058+42.5349+173.418+42.4149C174.138+42.1149+174.678+41.3349+175.218+40.8549C175.398+40.7349+175.038+40.7949+175.038+40.7949C175.818+40.0749+175.158+40.9149+175.878+40.4949C176.598+40.0149+176.718+39.2349+177.318+38.5749C176.598+38.8749+176.058+39.2949+175.578+39.8949C174.978+40.6749+174.558+41.0349+173.898+41.4549C174.618+40.9149+174.978+40.3749+175.578+39.4149C175.758+39.2349+175.938+39.1149+176.178+38.9949C175.998+38.8149+175.998+38.6349+176.238+38.4549C176.418+38.1549+176.778+38.0349+176.958+37.7349C177.258+37.3149+177.198+36.7749+177.558+36.3549C177.858+36.1149+178.278+35.9349+178.518+35.6949C179.058+35.2149+179.658+34.3149+179.418+33.5349C179.178+32.8149+178.578+31.9149+177.918+31.4949C177.138+31.0749+176.058+30.8949+175.218+31.2549C175.038+31.3149+174.318+31.4949+174.558+31.7349C174.618+31.8549+174.678+31.8549+174.798+31.8549C174.258+32.2749+173.358+32.9949+174.618+33.4749C174.498+33.5949+174.618+34.1349+174.618+34.1949C174.558+34.6149+173.718+36.8349+173.178+37.9149L173.898+36.8349C173.478+37.7349+172.998+38.5749+172.458+39.2949C172.818+38.5149+172.098+39.4149+172.098+39.5949C171.438+39.2949+171.618+41.1549+171.678+41.3349C171.678+41.3949+172.038+41.9349+172.038+41.9349ZM170.898+56.2149L170.898+56.2749L170.778+56.6349L170.898+56.1549C170.958+56.0949+170.958+56.0949+170.898+56.2149ZM172.878+38.3949C172.878+38.3949+172.998+38.2749+173.118+38.0349L172.878+38.3949ZM172.278+39.5349C172.278+39.5949+172.278+39.5949+172.218+39.6549C172.218+39.6549+172.218+39.5949+172.158+39.5949C172.218+39.5949+172.218+39.5949+172.278+39.5349Z" opacity="1" fill="#000000"/>
<path d="M202.518+33.0549C202.458+32.2149+201.558+32.8749+201.078+32.8749C198.678+32.9949+196.278+32.9949+193.938+33.1149C193.938+33.0549+194.058+32.8149+194.238+32.4549C193.998+32.8749+193.818+33.1149+193.638+33.1149C195.438+29.4549+197.358+25.7949+199.638+22.4349C199.578+22.5549+198.678+24.0549+198.738+24.0549C198.918+24.1149+201.138+21.0549+201.198+20.6349C201.198+20.3949+200.658+20.9949+200.658+20.9349C201.018+20.5749+201.618+20.2749+201.798+19.7949C202.218+18.5949+200.958+18.0549+200.058+17.8749C198.198+17.5149+196.098+17.7549+194.898+19.3149C193.758+20.6949+192.918+22.3149+192.198+23.9349C191.838+24.6549+191.358+24.8349+190.878+25.4949C190.158+26.5149+189.678+27.7149+189.138+28.8549C188.658+29.8749+188.178+30.9549+187.758+32.0349C187.518+32.5749+187.518+32.9949+186.978+33.1749C186.438+33.4149+185.418+33.2349+184.818+33.2949C182.478+33.5949+180.198+33.4749+177.858+33.7149C176.658+33.7749+175.458+33.7749+174.318+34.1949C174.078+34.2549+172.758+34.5549+172.638+34.7349C172.278+35.3949+173.718+35.4549+174.018+35.5149C176.298+35.8149+179.178+36.0549+181.458+35.6349C183.018+35.3349+184.638+35.4549+186.318+35.3349C185.478+37.1349+184.818+39.0549+184.158+40.9749L183.438+43.0749C183.198+43.7349+182.418+44.9949+182.418+45.7149C182.418+45.8349+182.598+45.5349+182.718+45.2349C182.418+46.1349+182.058+47.0349+181.818+47.9349C181.818+47.8749+181.998+47.1549+181.938+47.1549C181.638+47.1549+180.438+50.8149+180.318+51.1149C179.718+52.9149+179.058+54.7149+178.758+56.6349C178.398+58.5549+177.918+60.4149+177.498+62.2749C177.258+63.2349+177.018+64.1349+176.898+65.0949C176.778+65.5749+176.658+66.1149+176.658+66.5949C176.658+66.7149+176.658+67.4949+176.778+67.2549L176.658+68.4549L176.658+67.5549C176.298+67.9749+176.658+69.8949+176.718+70.2549C176.958+71.4549+177.558+72.5349+178.638+73.2549C179.598+73.9749+181.098+74.6349+182.238+74.0949C183.738+73.3749+184.998+71.6949+185.958+70.4949C188.058+68.0349+189.978+65.4549+191.898+62.8749C193.638+60.4749+195.438+58.1349+196.938+55.6149C197.778+54.1749+199.398+52.8549+199.938+51.2349C200.238+50.4549+200.058+49.4949+199.098+49.6749C198.318+49.8549+197.238+51.9549+196.758+52.5549C194.598+55.2549+192.558+58.0149+190.398+60.7149L186.918+64.9749C186.378+65.5749+185.838+66.2349+185.238+66.8349C184.998+67.1349+183.498+68.3349+183.558+68.6949C183.558+68.8149+184.218+68.2749+184.458+68.0949C184.158+68.4549+183.798+68.7549+183.498+69.0549C183.558+68.9949+182.298+69.7149+182.118+69.5949C180.978+69.1149+181.998+65.6349+182.178+64.7949C183.258+59.9349+184.878+55.0149+186.498+50.3349C187.458+47.7549+188.418+45.2949+189.498+42.7749C190.038+41.5149+190.578+40.1949+191.178+38.9349L192.018+36.6549L191.358+37.9749C191.778+36.8949+192.378+35.2749+192.738+35.2149L192.558+35.5749C192.678+35.3949+192.798+35.2749+192.918+35.2149C193.578+34.7949+195.258+35.2149+196.038+35.2149C196.578+35.2149+197.238+35.2749+197.778+35.0949C198.138+34.9749+198.018+34.7949+198.438+34.6749C199.158+34.5549+200.058+35.0349+200.838+34.7949C201.558+34.6149+202.578+33.9549+202.518+33.1149L202.518+33.0549ZM191.118+36.5349C188.418+42.2349+186.378+48.3549+184.218+54.2949C183.198+56.9949+182.238+59.8149+181.578+62.6349L181.278+63.7749C181.698+61.6149+182.178+59.5149+182.778+57.4149C184.098+52.7949+185.778+48.2349+187.758+43.8549C191.118+36.3549+194.118+28.3149+198.918+21.5349C195.678+26.1549+193.518+31.4349+191.118+36.5349ZM195.078+30.5949L196.518+27.8349C196.218+27.8949+195.678+29.2149+195.078+30.5949ZM188.898+43.6749C188.478+44.8149+187.998+45.8949+187.518+46.9749C187.998+45.8349+188.418+44.6349+188.958+43.4349C188.898+43.5549+188.898+43.6149+188.898+43.6749ZM194.298+32.3349C194.478+31.9749+194.718+31.4949+194.898+31.0149L194.298+32.3349ZM181.218+70.1349C181.158+70.1349+181.098+70.0749+181.038+70.0149L181.218+70.1349Z" opacity="1" fill="#000000"/>
<path d="M224.958+49.6149C224.778+48.4749+222.018+51.6549+221.898+51.7749C220.158+53.6349+218.478+55.6749+216.438+57.2949C215.478+58.0149+215.058+58.4349+215.118+56.9949C215.178+55.7349+215.658+54.4149+216.018+53.2749C216.198+52.6749+217.398+50.3949+217.038+49.9749C216.978+49.9149+216.858+50.0949+216.738+50.2149C217.578+48.5349+219.618+45.6549+216.918+44.8749C213.858+44.0349+212.298+47.3349+210.978+49.3149C209.718+51.1149+208.518+52.8549+207.078+54.4749C205.998+55.7349+204.318+58.1349+202.578+58.6149C200.958+59.1549+202.038+56.5149+202.278+55.6149C202.458+55.1349+204.618+49.5549+204.738+49.6149C204.618+49.6149+204.498+49.6749+204.378+49.8549C205.038+48.4149+205.758+46.9749+206.538+45.5949C206.358+45.9549+206.178+46.5549+206.178+46.5549C206.478+46.6149+207.918+43.6749+207.798+43.6749C207.678+43.7349+207.558+43.8549+207.438+44.0349C207.918+43.1949+208.518+42.7749+207.438+41.9349C206.358+41.0949+204.438+40.9149+203.358+41.8749C202.038+42.9549+201.198+44.8749+200.538+46.3749C200.118+47.2149+199.398+47.6949+198.978+48.6549C198.138+50.5149+197.658+52.3749+197.178+54.2949C196.698+56.1549+196.398+58.0749+196.698+59.9949C196.878+60.8349+197.178+61.7949+197.838+62.3949C198.018+62.5149+199.758+63.1749+199.638+62.7549C199.518+62.7549+199.398+62.7549+199.338+62.6949C199.998+62.6949+200.658+62.3949+201.258+62.0349C201.318+62.0949+200.778+62.3349+200.778+62.3949C201.378+63.1749+205.938+58.5549+206.358+58.0149C207.858+56.0949+209.358+54.2349+210.918+52.3749C210.138+54.4749+208.818+57.3549+210.078+59.6349C210.798+60.8349+212.178+61.4949+213.498+61.3749C216.318+61.1949+218.838+58.1349+220.578+56.2749C221.718+55.0149+222.858+53.6949+223.698+52.2549C224.058+51.6549+225.018+50.3349+224.958+49.6149ZM215.838+50.8149C215.718+51.1749+215.658+51.6549+215.478+51.9549C215.478+52.0149+215.418+52.0749+215.358+52.1349C215.418+52.0749+215.418+52.0149+215.418+51.9549C214.938+50.4549+216.738+48.5349+217.338+47.0349C216.858+48.3549+216.258+49.5549+215.838+50.8149ZM201.558+58.5549C201.198+56.8149+202.458+54.4149+203.118+52.7949C202.278+55.1349+201.438+58.0149+201.558+58.5549ZM210.918+52.6749C210.918+52.4349+210.978+52.2549+211.158+52.1349C211.038+52.3149+210.978+52.4949+210.918+52.6749Z" opacity="1" fill="#000000"/>
<path d="M243.558+49.4349C243.558+49.4949+243.558+49.4949+243.498+49.4349L243.498+49.3749C242.538+47.7549+241.278+49.9749+240.738+50.7549C239.718+52.1349+238.758+53.4549+237.678+54.7149C236.778+55.7949+235.818+56.8749+235.098+58.0149C235.098+58.1349+234.978+58.4349+234.978+58.4349C234.738+58.7949+234.378+59.0949+234.078+59.4549C233.538+59.9949+232.998+60.5949+232.398+61.1349C231.498+61.9749+226.458+66.7149+225.798+63.6549C225.438+62.1549+225.918+60.2949+226.218+58.8549C226.398+58.0749+226.578+57.3549+226.698+56.5749C226.818+55.9749+226.638+55.3749+226.938+54.7749C227.118+54.4149+227.178+54.4749+227.598+54.3549L228.618+53.9949C229.278+53.7549+229.938+53.5149+230.538+53.1549C231.438+52.6149+232.278+51.9549+233.058+51.2949C234.918+49.7349+236.898+47.8749+237.678+45.5349C238.098+44.2149+238.158+42.7749+237.318+41.6349C236.538+40.6149+235.218+40.0749+234.018+39.8349C230.778+39.2349+228.318+41.0949+226.458+43.5549C224.178+46.3749+222.558+49.8549+221.778+53.3949C221.358+55.1349+221.118+56.8749+220.818+58.6749C220.518+60.4749+220.338+62.1549+221.298+63.8349C221.238+63.2349+221.118+62.6949+221.118+62.1549C221.118+61.8549+221.238+61.5549+221.238+61.3149C221.238+61.1949+221.118+60.8349+221.118+60.6549C221.118+60.1149+221.238+59.6949+221.358+59.1549C221.418+58.6149+221.358+58.0749+221.418+57.5349C221.478+56.9349+221.718+56.4549+221.958+55.9149C222.138+55.4349+222.198+55.0149+222.378+54.5349C222.558+54.1149+222.678+53.6349+222.858+53.1549C222.918+52.8549+223.218+52.4949+223.398+52.1349C223.218+52.6749+222.858+53.1549+222.738+53.6349C222.558+54.3549+222.678+55.1349+222.618+55.8549C222.498+56.6349+222.258+57.4149+222.138+58.2549C222.018+59.0349+221.658+59.7549+221.538+60.5349C221.418+61.2549+221.178+61.7949+221.238+62.5149C221.238+62.9349+221.298+63.3549+221.358+63.7149C221.418+64.1949+221.718+64.4949+222.018+64.8549C223.038+66.0549+224.418+67.0149+225.978+67.4349C227.058+67.7349+228.018+67.6749+229.038+67.1349C230.478+66.3549+231.738+65.1549+232.818+64.0149C233.838+62.8749+234.618+61.6149+235.518+60.4149C236.358+59.3349+237.378+58.3149+238.218+57.2349L241.458+53.0349L243.318+50.5749C243.618+50.2149+243.798+49.9149+243.558+49.4349ZM228.678+50.0949C228.738+49.9749+228.738+49.9149+228.738+49.9149C229.638+47.9949+230.298+45.9549+231.558+44.0949L232.638+42.6549C232.878+42.3549+233.298+41.8149+233.718+41.6949C234.618+41.5149+234.858+43.0749+234.798+43.6749L234.558+44.9349C234.498+45.2949+234.618+45.5349+234.558+45.8349C234.438+46.1949+234.138+46.3749+233.958+46.6749L232.938+47.9949C231.558+49.6149+229.818+50.9949+227.898+52.0149C228.198+51.3549+228.378+50.6949+228.678+50.0949ZM240.678+31.1949C240.618+31.0749+240.498+30.2949+240.378+30.1149C239.958+29.4549+239.298+29.2149+238.698+29.0349C238.638+29.0349+237.918+28.8549+237.618+28.9149C236.898+28.9749+237.198+29.2749+237.018+29.6349L234.798+33.4749C234.498+34.0149+233.298+36.4149+233.898+36.8349C234.258+37.1349+235.158+36.4749+235.398+36.2949C236.418+35.5149+237.738+34.5549+238.638+33.5349C238.818+33.3549+241.038+31.3749+240.678+31.1949Z" opacity="1" fill="#000000"/>
<path d="M263.058+50.1549C262.878+49.3149+262.398+49.1949+261.798+49.4349C260.658+49.9749+259.518+51.1749+258.438+51.8949C255.978+53.4549+253.518+54.7149+250.878+56.0349C250.878+55.9749+250.818+55.8549+250.758+55.6749C250.818+55.9749+250.758+56.0949+250.698+56.1549C250.098+53.5749+249.498+50.9949+249.018+48.3549C249.258+49.4949+249.798+51.4149+250.218+53.0349C249.678+50.5149+249.018+47.3949+249.078+47.3949C248.958+47.4549+248.958+47.5749+248.958+47.6949C248.838+46.9749+248.658+46.0749+248.778+45.2949C248.838+44.3949+249.318+43.6149+249.618+42.7749C249.558+43.1949+249.438+43.7349+249.438+43.7349C249.798+43.7949+250.038+41.5749+250.038+41.3349C249.978+40.9749+249.198+39.8349+249.198+40.1349C247.578+38.6349+244.398+41.9349+243.918+43.3749C243.558+44.3349+243.558+45.3549+243.618+46.3749C243.678+47.3949+243.978+48.2949+244.278+49.2549C244.458+49.9749+244.218+50.4549+244.278+51.2349C244.398+52.4349+244.818+53.6349+245.058+54.7749C245.298+55.6749+246.078+57.4749+245.898+58.3149C245.778+59.1549+243.978+59.8749+243.198+60.3549C242.178+61.0149+241.158+61.7949+240.138+62.5749C238.338+63.9549+236.418+65.6949+235.698+67.9149C235.578+68.2149+235.158+69.5349+235.578+69.7749C235.638+69.8349+235.818+68.8149+235.878+68.6949C235.098+72.6549+238.998+74.5749+242.658+74.6349C246.798+74.7549+249.678+72.3549+251.118+68.6349C251.718+67.0149+251.898+65.3349+251.838+63.6549C251.838+62.5149+251.718+61.4349+251.538+60.3549C251.418+59.3949+251.298+59.4549+251.958+58.9149C252.438+58.5549+253.158+58.3149+253.638+58.0749C255.558+57.0549+257.298+55.8549+259.038+54.5949C260.298+53.6949+263.298+52.1349+263.058+50.2149L263.058+50.1549ZM238.818+70.7949C237.258+70.3149+238.818+67.8549+239.358+67.0749C240.258+65.8749+241.578+64.9749+242.778+64.1349L244.578+62.9349C244.758+62.8149+245.898+61.9149+245.538+62.0349L246.258+61.6149L245.838+61.9749C245.958+61.9149+246.138+61.8549+246.258+61.7349C246.318+63.1749+246.318+64.6149+245.898+66.0549C245.838+66.2949+244.698+68.6949+244.218+69.1749L244.518+68.9349C243.978+69.5949+243.378+70.1349+242.658+70.5549C242.658+70.4949+243.198+70.1349+243.138+70.0749L241.458+70.7349C240.618+70.9149+239.658+71.0949+238.818+70.7949ZM246.378+72.5349C244.818+73.1949+243.318+73.4949+241.698+73.5549C244.638+73.3749+247.698+71.9349+249.438+69.4749C248.778+70.7949+247.938+71.8149+246.378+72.5349ZM250.758+55.4949C250.698+55.0749+250.578+54.4749+250.398+53.8149C250.518+54.4749+250.638+55.1349+250.758+55.4949ZM251.538+61.7349C251.478+61.6749+251.478+61.5549+251.478+61.4349C251.478+61.5549+251.538+61.6749+251.538+61.7349Z" opacity="1" fill="#000000"/>
</g>
</g>
</svg>
